<svg width="121" height="60" viewBox="0 0 121 60" fill="none" xmlns="http://www.w3.org/2000/svg">
<ellipse cx="22.5" cy="30" rx="22.5" ry="22" fill="#F1B67D"/>
<path d="M51.484 23V22.78L51.924 22.626C52.2173 22.538 52.408 22.406 52.496 22.23C52.5987 22.054 52.65 21.8193 52.65 21.526V9.998C52.65 9.70467 52.5987 9.47 52.496 9.294C52.3933 9.118 52.1953 8.97867 51.902 8.876L51.484 8.7V8.48H56.83C59.0153 8.48 60.592 8.88333 61.56 9.69C62.5427 10.482 63.034 11.5307 63.034 12.836C63.034 13.672 62.8287 14.442 62.418 15.146C62.022 15.8353 61.362 16.3853 60.438 16.796C59.514 17.2067 58.2673 17.412 56.698 17.412H55.95V21.46C55.95 22.032 56.236 22.406 56.808 22.582L57.468 22.78V23H51.484ZM55.95 16.972H56.786C57.5047 16.972 58.0913 16.8547 58.546 16.62C59.0007 16.3853 59.338 15.9747 59.558 15.388C59.778 14.8013 59.888 13.9873 59.888 12.946C59.888 11.89 59.7633 11.0687 59.514 10.482C59.2793 9.89533 58.9273 9.492 58.458 9.272C57.9887 9.03733 57.402 8.92 56.698 8.92H55.95V16.972ZM68.9718 12.088C69.9251 12.088 70.7391 12.286 71.4138 12.682C72.0884 13.0633 72.6018 13.5913 72.9538 14.266C73.3204 14.926 73.5038 15.6813 73.5038 16.532C73.5038 16.6933 73.4964 16.862 73.4818 17.038C73.4671 17.1993 73.4378 17.346 73.3938 17.478H66.8378C66.8524 19.062 67.1311 20.206 67.6738 20.91C68.2311 21.5993 69.0524 21.944 70.1378 21.944C70.8711 21.944 71.4651 21.8267 71.9198 21.592C72.3744 21.3573 72.7998 21.0127 73.1958 20.558L73.4158 20.756C72.9611 21.5627 72.3524 22.1933 71.5898 22.648C70.8418 23.1027 69.9398 23.33 68.8838 23.33C67.8424 23.33 66.9184 23.11 66.1118 22.67C65.3051 22.2153 64.6744 21.57 64.2198 20.734C63.7651 19.898 63.5378 18.9007 63.5378 17.742C63.5378 16.5393 63.8018 15.52 64.3298 14.684C64.8578 13.8333 65.5324 13.188 66.3538 12.748C67.1898 12.308 68.0624 12.088 68.9718 12.088ZM68.9058 12.528C68.4804 12.528 68.1138 12.66 67.8058 12.924C67.5124 13.1733 67.2778 13.628 67.1018 14.288C66.9404 14.9333 66.8524 15.85 66.8378 17.038H70.5998C70.7464 15.4393 70.6878 14.288 70.4238 13.584C70.1598 12.88 69.6538 12.528 68.9058 12.528ZM80.1662 23.33C79.0515 23.33 78.0835 23.1027 77.2622 22.648C76.4408 22.1787 75.8028 21.5187 75.3482 20.668C74.9082 19.8173 74.6882 18.82 74.6882 17.676C74.6882 16.532 74.9228 15.542 75.3922 14.706C75.8762 13.87 76.5288 13.2247 77.3502 12.77C78.1862 12.3153 79.1248 12.088 80.1662 12.088C81.2075 12.088 82.1388 12.3153 82.9602 12.77C83.7815 13.21 84.4268 13.848 84.8962 14.684C85.3802 15.52 85.6222 16.5173 85.6222 17.676C85.6222 18.8347 85.3948 19.8393 84.9402 20.69C84.5002 21.526 83.8695 22.1787 83.0482 22.648C82.2415 23.1027 81.2808 23.33 80.1662 23.33ZM80.1662 22.89C80.6795 22.89 81.0902 22.7433 81.3982 22.45C81.7062 22.1567 81.9262 21.636 82.0582 20.888C82.2048 20.14 82.2782 19.084 82.2782 17.72C82.2782 16.3413 82.2048 15.278 82.0582 14.53C81.9262 13.782 81.7062 13.2613 81.3982 12.968C81.0902 12.6747 80.6795 12.528 80.1662 12.528C79.6528 12.528 79.2348 12.6747 78.9122 12.968C78.6042 13.2613 78.3768 13.782 78.2302 14.53C78.0982 15.278 78.0322 16.3413 78.0322 17.72C78.0322 19.084 78.0982 20.14 78.2302 20.888C78.3768 21.636 78.6042 22.1567 78.9122 22.45C79.2348 22.7433 79.6528 22.89 80.1662 22.89ZM86.3736 28.06V27.84L86.6376 27.752C87.1803 27.6053 87.4516 27.2533 87.4516 26.696V14.728C87.4516 14.4053 87.3929 14.1633 87.2756 14.002C87.1729 13.8407 86.9749 13.7307 86.6816 13.672L86.3736 13.606V13.386L90.1136 12.11L90.3336 12.33L90.5316 13.012C91.0156 12.7187 91.5509 12.4913 92.1376 12.33C92.7389 12.1687 93.3549 12.088 93.9856 12.088C95.2469 12.088 96.2443 12.572 96.9776 13.54C97.7256 14.4933 98.0996 15.8647 98.0996 17.654C98.0996 19.414 97.6889 20.8 96.8676 21.812C96.0609 22.824 94.9169 23.33 93.4356 23.33C92.2769 23.33 91.3016 23.1613 90.5096 22.824V26.63C90.5096 27.2167 90.7736 27.5833 91.3016 27.73L91.7196 27.84V28.06H86.3736ZM92.3796 22.692C93.1129 22.692 93.6923 22.3107 94.1176 21.548C94.5576 20.7853 94.7776 19.5167 94.7776 17.742C94.7776 15.9673 94.5723 14.728 94.1616 14.024C93.7509 13.3053 93.1569 12.946 92.3796 12.946C91.8369 12.946 91.2356 13.122 90.5756 13.474V22.34C91.1329 22.5747 91.7343 22.692 92.3796 22.692ZM99.0724 23V22.78L99.3364 22.692C99.8644 22.516 100.128 22.1493 100.128 21.592V9.822C100.128 9.52867 100.07 9.30867 99.9524 9.162C99.8351 9.00067 99.6297 8.88333 99.3364 8.81L99.0504 8.744V8.524L103.076 7.578L103.34 7.776L103.252 10.856V18.38C103.252 18.9227 103.252 19.4653 103.252 20.008C103.267 20.536 103.274 21.064 103.274 21.592C103.274 21.8853 103.333 22.1273 103.45 22.318C103.568 22.494 103.766 22.626 104.044 22.714L104.33 22.78V23H99.0724ZM110.823 12.088C111.777 12.088 112.591 12.286 113.265 12.682C113.94 13.0633 114.453 13.5913 114.805 14.266C115.172 14.926 115.355 15.6813 115.355 16.532C115.355 16.6933 115.348 16.862 115.333 17.038C115.319 17.1993 115.289 17.346 115.245 17.478H108.689C108.704 19.062 108.983 20.206 109.525 20.91C110.083 21.5993 110.904 21.944 111.989 21.944C112.723 21.944 113.317 21.8267 113.771 21.592C114.226 21.3573 114.651 21.0127 115.047 20.558L115.267 20.756C114.813 21.5627 114.204 22.1933 113.441 22.648C112.693 23.1027 111.791 23.33 110.735 23.33C109.694 23.33 108.77 23.11 107.963 22.67C107.157 22.2153 106.526 21.57 106.071 20.734C105.617 19.898 105.389 18.9007 105.389 17.742C105.389 16.5393 105.653 15.52 106.181 14.684C106.709 13.8333 107.384 13.188 108.205 12.748C109.041 12.308 109.914 12.088 110.823 12.088ZM110.757 12.528C110.332 12.528 109.965 12.66 109.657 12.924C109.364 13.1733 109.129 13.628 108.953 14.288C108.792 14.9333 108.704 15.85 108.689 17.038H112.451C112.598 15.4393 112.539 14.288 112.275 13.584C112.011 12.88 111.505 12.528 110.757 12.528ZM51.77 53V52.78L52.496 52.56C52.76 52.4867 52.9507 52.3473 53.068 52.142C53.1853 51.922 53.244 51.6653 53.244 51.372V40.79C53.0827 40.438 52.9507 40.174 52.848 39.998C52.76 39.822 52.6573 39.6753 52.54 39.558C52.4227 39.426 52.2613 39.2647 52.056 39.074L51.682 38.7V38.48H55.576L62.88 48.446V40.152C62.88 39.8587 62.8287 39.5947 62.726 39.36C62.638 39.1253 62.4473 38.9713 62.154 38.898L61.428 38.7V38.48H64.574V38.7L63.98 38.898C63.716 38.986 63.5547 39.14 63.496 39.36C63.4373 39.58 63.408 39.8367 63.408 40.13V53.066H62.176L53.772 41.516V51.372C53.772 51.6653 53.816 51.9147 53.904 52.12C53.992 52.3253 54.1753 52.472 54.454 52.56L55.114 52.78V53H51.77ZM70.6261 42.088C71.5794 42.088 72.3934 42.286 73.0681 42.682C73.7427 43.0633 74.2561 43.5913 74.6081 44.266C74.9747 44.926 75.1581 45.6813 75.1581 46.532C75.1581 46.6933 75.1507 46.862 75.1361 47.038C75.1214 47.1993 75.0921 47.346 75.0481 47.478H68.4921C68.5067 49.062 68.7854 50.206 69.3281 50.91C69.8854 51.5993 70.7067 51.944 71.7921 51.944C72.5254 51.944 73.1194 51.8267 73.5741 51.592C74.0287 51.3573 74.4541 51.0127 74.8501 50.558L75.0701 50.756C74.6154 51.5627 74.0067 52.1933 73.2441 52.648C72.4961 53.1027 71.5941 53.33 70.5381 53.33C69.4967 53.33 68.5727 53.11 67.7661 52.67C66.9594 52.2153 66.3287 51.57 65.8741 50.734C65.4194 49.898 65.1921 48.9007 65.1921 47.742C65.1921 46.5393 65.4561 45.52 65.9841 44.684C66.5121 43.8333 67.1867 43.188 68.0081 42.748C68.8441 42.308 69.7167 42.088 70.6261 42.088ZM70.5601 42.528C70.1347 42.528 69.7681 42.66 69.4601 42.924C69.1667 43.1733 68.9321 43.628 68.7561 44.288C68.5947 44.9333 68.5067 45.85 68.4921 47.038H72.2541C72.4007 45.4393 72.3421 44.288 72.0781 43.584C71.8141 42.88 71.3081 42.528 70.5601 42.528ZM80.6785 53.066L77.2905 43.76C77.1292 43.2907 76.8065 42.9607 76.3225 42.77L75.9485 42.638V42.418H81.3385V42.638L81.0085 42.726C80.4365 42.902 80.2458 43.254 80.4365 43.782L82.4825 50.008L84.3085 45.168L83.8905 43.914C83.7878 43.5913 83.6778 43.3493 83.5605 43.188C83.4578 43.012 83.3185 42.8873 83.1425 42.814L82.7685 42.638V42.418H87.3225V42.638L87.0145 42.77C86.7945 42.858 86.6625 42.9753 86.6185 43.122C86.5745 43.2687 86.6038 43.4887 86.7065 43.782L88.7305 49.898L90.8205 43.826C91.0259 43.2687 90.9158 42.9167 90.4905 42.77L90.0065 42.638V42.418H92.6465V42.638L92.1185 42.792C91.8692 42.8653 91.6858 42.9827 91.5685 43.144C91.4659 43.2907 91.3705 43.496 91.2825 43.76L88.1145 53.066H86.9925L84.5505 45.872L81.9545 53.066H80.6785ZM96.8183 53.33C96.0996 53.33 95.4543 53.242 94.8823 53.066C94.3103 52.9047 93.7823 52.6993 93.2983 52.45L93.3203 49.832H93.5403L94.2883 51.152C94.6109 51.7387 94.9629 52.1787 95.3443 52.472C95.7403 52.7507 96.2389 52.89 96.8403 52.89C97.5443 52.89 98.1089 52.736 98.5343 52.428C98.9743 52.1053 99.1943 51.68 99.1943 51.152C99.1943 50.668 99.0403 50.272 98.7323 49.964C98.4243 49.656 97.8523 49.3773 97.0163 49.128L96.0923 48.842C95.1976 48.578 94.4936 48.1673 93.9803 47.61C93.4669 47.0527 93.2103 46.3707 93.2103 45.564C93.2103 44.596 93.5916 43.7747 94.3543 43.1C95.1169 42.4253 96.2096 42.088 97.6323 42.088C98.2043 42.088 98.7396 42.154 99.2383 42.286C99.7516 42.4033 100.243 42.5867 100.712 42.836L100.58 45.212H100.36L99.5903 43.848C99.3116 43.364 99.0329 43.0267 98.7543 42.836C98.4903 42.6307 98.0869 42.528 97.5443 42.528C97.0456 42.528 96.5763 42.6673 96.1363 42.946C95.6963 43.2247 95.4763 43.6207 95.4763 44.134C95.4763 44.6327 95.6596 45.0287 96.0263 45.322C96.4076 45.6153 96.9649 45.8867 97.6983 46.136L98.6883 46.422C99.7443 46.7447 100.5 47.192 100.954 47.764C101.409 48.3213 101.636 48.996 101.636 49.788C101.636 50.8587 101.211 51.7167 100.36 52.362C99.5243 53.0073 98.3436 53.33 96.8183 53.33Z" fill="black"/>
</svg>
