<svg width="15" height="16" viewBox="0 0 15 16" fill="none" xmlns="http://www.w3.org/2000/svg">
<path d="M14.375 2H2.29167C1.94648 2 1.66667 2.33578 1.66667 2.75V3H0.625C0.279818 3 0 3.33578 0 3.75V12.25C0 13.2165 0.652917 14 1.45833 14H13.75C14.4404 14 15 13.3284 15 12.5V2.75C15 2.33578 14.7202 2 14.375 2ZM1.45833 12.5C1.40308 12.5 1.35009 12.4737 1.31102 12.4268C1.27195 12.3799 1.25 12.3163 1.25 12.25V4.5H1.66667V12.25C1.66667 12.3163 1.64472 12.3799 1.60565 12.4268C1.56658 12.4737 1.51359 12.5 1.45833 12.5ZM7.60417 12H3.64583C3.47326 12 3.33333 11.8321 3.33333 11.625V11.375C3.33333 11.1679 3.47326 11 3.64583 11H7.60417C7.77674 11 7.91667 11.1679 7.91667 11.375V11.625C7.91667 11.8321 7.77674 12 7.60417 12ZM13.0208 12H9.0625C8.88992 12 8.75 11.8321 8.75 11.625V11.375C8.75 11.1679 8.88992 11 9.0625 11H13.0208C13.1934 11 13.3333 11.1679 13.3333 11.375V11.625C13.3333 11.8321 13.1934 12 13.0208 12ZM7.60417 9H3.64583C3.47326 9 3.33333 8.83209 3.33333 8.625V8.375C3.33333 8.16791 3.47326 8 3.64583 8H7.60417C7.77674 8 7.91667 8.16791 7.91667 8.375V8.625C7.91667 8.83209 7.77674 9 7.60417 9ZM13.0208 9H9.0625C8.88992 9 8.75 8.83209 8.75 8.625V8.375C8.75 8.16791 8.88992 8 9.0625 8H13.0208C13.1934 8 13.3333 8.16791 13.3333 8.375V8.625C13.3333 8.83209 13.1934 9 13.0208 9ZM13.0208 6H3.64583C3.47326 6 3.33333 5.83209 3.33333 5.625V4.375C3.33333 4.16791 3.47326 4 3.64583 4H13.0208C13.1934 4 13.3333 4.16791 13.3333 4.375V5.625C13.3333 5.83209 13.1934 6 13.0208 6Z" fill="#08AEAF"/>
</svg>
