<svg width="14" height="15" viewBox="0 0 14 15" fill="none" xmlns="http://www.w3.org/2000/svg">
<path d="M12.5 6.5625H11.75V4.45312C11.75 1.99805 9.61875 0 7 0C4.38125 0 2.25 1.99805 2.25 4.45312V6.5625H1.5C0.671875 6.5625 0 7.19238 0 7.96875V13.5938C0 14.3701 0.671875 15 1.5 15H12.5C13.3281 15 14 14.3701 14 13.5938V7.96875C14 7.19238 13.3281 6.5625 12.5 6.5625ZM9.25 6.5625H4.75V4.45312C4.75 3.29004 5.75938 2.34375 7 2.34375C8.24063 2.34375 9.25 3.29004 9.25 4.45312V6.5625Z" fill="#676161"/>
</svg>
