<svg width="15" height="14" viewBox="0 0 15 14" fill="none" xmlns="http://www.w3.org/2000/svg">
<path d="M14.7158 5.21719C14.8301 5.13242 15 5.21172 15 5.3457V10.9375C15 11.6621 14.3701 12.25 13.5938 12.25H1.40625C0.629883 12.25 0 11.6621 0 10.9375V5.34844C0 5.21172 0.166992 5.13516 0.28418 5.21992C0.94043 5.6957 1.81055 6.3 4.79883 8.32617C5.41699 8.74727 6.45996 9.6332 7.5 9.62773C8.5459 9.63594 9.60938 8.73086 10.2041 8.32617C13.1924 6.3 14.0596 5.69297 14.7158 5.21719ZM7.5 8.75C8.17969 8.76094 9.1582 7.95156 9.65039 7.61797C13.5381 4.98477 13.834 4.75508 14.7305 4.09883C14.9004 3.97578 15 3.78437 15 3.58203V3.0625C15 2.33789 14.3701 1.75 13.5938 1.75H1.40625C0.629883 1.75 0 2.33789 0 3.0625V3.58203C0 3.78437 0.0996094 3.97305 0.269531 4.09883C1.16602 4.75234 1.46191 4.98477 5.34961 7.61797C5.8418 7.95156 6.82031 8.76094 7.5 8.75Z" fill="#676161"/>
</svg>
